<?xml version="1.0" encoding="utf-8"?>
<!-- Generator: Adobe Illustrator 26.2.1, SVG Export Plug-In . SVG Version: 6.00 Build 0)  -->
<svg version="1.1" id="Layer_1" xmlns="http://www.w3.org/2000/svg" xmlns:xlink="http://www.w3.org/1999/xlink" x="0px" y="0px"
	 viewBox="0 0 48 48" style="enable-background:new 0 0 48 48;" xml:space="preserve">
<style type="text/css">
	.st0{fill:#FF7324;}
</style>
<path class="st0" d="M37.8,40.9h-8c-1.2,0-2.2-1-2.2-2.2v-8c0-1-0.8-1.8-1.8-1.8h-3.6c-1,0-1.8,0.8-1.8,1.8v8c0,1.2-1,2.2-2.2,2.2
	h-8c-1.2,0-2.2-1-2.2-2.2v-17c0-2,0.9-4,2.5-5.3l12.7-10c0.5-0.4,1.2-0.4,1.7,0l12.7,10c1.6,1.3,2.5,3.2,2.5,5.2v17
	C40,39.9,39,40.9,37.8,40.9z"/>
</svg>
